# Blender v2.82 (sub 7) OBJ File: 'bonusrocket.blend'
# www.blender.org
mtllib bonusrocket_LOD2.mtl
o Corps2_Cylinder.010
v 0.075440 -0.033409 -0.065333
v -0.075440 -0.033409 0.065333
v -0.000000 0.162591 0.000000
vt 0.300583 1.000000
vt 0.363671 0.500000
vt 0.863671 0.500000
vt -0.000000 0.500000
vn 0.6547 -0.0000 0.7559
vn -0.6547 0.0000 -0.7559
usemtl mat_Corps
s off
f 3/1/1 2/2/1 1/3/1
f 3/1/2 1/4/2 2/2/2
o Nez2_Cylinder.011
v 0.094106 -0.068090 -0.030816
v -0.015608 -0.062246 -0.109273
v 0.105076 -0.071503 0.039936
v -0.071079 -0.072449 0.069913
v -0.073770 -0.068901 -0.066221
v -0.014064 -0.045466 0.108349
vt 0.750000 0.010000
vt 0.957846 0.130000
vt 0.938720 0.332999
vt 0.586541 0.120284
vt 0.584011 0.372205
vt 0.750000 0.490000
vn 0.2205 0.9753 0.0129
vn 0.0104 -0.9996 -0.0263
vn 0.1080 0.9912 -0.0772
vn -0.1677 0.9830 -0.0746
vn -0.4452 0.8949 0.0321
vn 0.0869 -0.8714 0.4829
vn 0.0289 -0.9930 -0.1144
vn -0.0028 -0.9989 -0.0478
usemtl mat_Reactor
s off
f 9/5/3 6/6/3 4/7/3
f 4/7/4 7/8/4 8/9/4
f 4/7/5 5/10/5 9/5/5
f 5/10/6 8/9/6 9/5/6
f 8/9/7 7/8/7 9/5/7
f 9/5/8 7/8/8 6/6/8
f 8/9/9 5/10/9 4/7/9
f 4/7/10 6/6/10 7/8/10
o Queue2_Cylinder.012
v 0.046034 0.167858 -0.085383
v 0.084870 0.162591 0.049000
v -0.049219 0.170000 0.063329
v -0.084870 0.162591 -0.049000
v 0.000000 0.231191 -0.000000
v 0.000000 0.231191 -0.000000
v 0.000000 0.231191 -0.000000
v 0.000000 0.231191 -0.000000
v 0.000000 0.231191 -0.000000
v 0.000000 0.231191 -0.000000
vt 0.042154 0.370000
vt 0.347931 0.433459
vt 0.457846 0.130000
vt 0.042154 0.370000
vt 0.250000 0.010000
vt 0.457846 0.130000
vt 0.042154 0.130000
vt 0.122832 0.083420
vt 0.250000 0.490000
vt 0.457846 0.370000
vn 0.0271 -0.9985 -0.0470
vn 0.0000 0.0000 1.0000
vn 0.1155 0.6680 0.7352
vn 0.0000 0.0000 -1.0000
vn 0.0000 -0.2352 0.9720
vn 0.6764 0.7173 -0.1674
vn -0.0464 -0.9957 0.0804
vn -0.6764 0.7173 0.1674
vn -0.2108 0.7273 -0.6531
usemtl mat_Nez
s off
f 13/11/11 10/12/11 11/13/11
f 19/14/12 17/15/12 16/16/12
f 13/11/12 18/17/12 19/14/12
f 11/13/13 17/15/13 12/18/13
f 10/12/14 19/14/14 15/19/14
f 12/18/15 17/15/15 18/17/15
f 11/13/12 14/20/12 16/16/12
f 16/16/12 14/20/12 15/19/12
f 19/14/12 18/17/12 17/15/12
f 16/16/12 15/19/12 19/14/12
f 11/13/12 16/16/12 17/15/12
f 10/12/12 15/19/12 14/20/12
f 11/13/16 10/12/16 14/20/16
f 12/18/17 13/11/17 11/13/17
f 13/11/18 12/18/18 18/17/18
f 10/12/19 13/11/19 19/14/19
