# Blender v2.82 (sub 7) OBJ File: 'bonusrocket.blend'
# www.blender.org
mtllib bonusrocket_LOD0.mtl
o Corps_Cylinder.001
v 0.000000 -0.033409 -0.098000
v 0.000000 0.162591 -0.098000
v 0.084870 -0.033409 -0.049000
v 0.084870 0.162591 -0.049000
v 0.084870 -0.033409 0.049000
v 0.084870 0.162591 0.049000
v -0.000000 -0.033409 0.098000
v -0.000000 0.162591 0.098000
v -0.084870 -0.033409 0.049000
v -0.084870 0.162591 0.049000
v -0.084870 -0.033409 -0.049000
v -0.084870 0.162591 -0.049000
vt 1.000000 1.000000
vt 0.833333 0.500000
vt 1.000000 0.500000
vt 0.833333 1.000000
vt 0.666667 0.500000
vt 0.666667 1.000000
vt 0.500000 0.500000
vt 0.500000 1.000000
vt 0.333333 0.500000
vt 0.250000 0.490000
vt 0.042154 0.130000
vt 0.457846 0.130000
vt 0.333333 1.000000
vt 0.166667 0.500000
vt 0.166667 1.000000
vt -0.000000 0.500000
vt 0.542154 0.130000
vt 0.542154 0.370000
vt 0.957846 0.370000
vt 0.457846 0.370000
vt 0.042154 0.370000
vt 0.250000 0.010000
vt -0.000000 1.000000
vt 0.750000 0.490000
vt 0.957846 0.130000
vt 0.750000 0.010000
vn 0.5000 0.0000 -0.8660
vn 1.0000 0.0000 0.0000
vn 0.5000 0.0000 0.8660
vn -0.5000 0.0000 0.8660
vn 0.0000 1.0000 0.0000
vn -1.0000 0.0000 0.0000
vn -0.5000 0.0000 -0.8660
vn 0.0000 -1.0000 0.0000
usemtl mat_Corps
s off
f 2/1/1 3/2/1 1/3/1
f 4/4/2 5/5/2 3/2/2
f 6/6/3 7/7/3 5/5/3
f 8/8/4 9/9/4 7/7/4
f 2/10/5 10/11/5 6/12/5
f 10/13/6 11/14/6 9/9/6
f 12/15/7 1/16/7 11/14/7
f 9/17/8 11/18/8 3/19/8
f 2/1/1 4/4/1 3/2/1
f 4/4/2 6/6/2 5/5/2
f 6/6/3 8/8/3 7/7/3
f 8/8/4 10/13/4 9/9/4
f 6/12/5 4/20/5 2/10/5
f 2/10/5 12/21/5 10/11/5
f 10/11/5 8/22/5 6/12/5
f 10/13/6 12/15/6 11/14/6
f 12/15/7 2/23/7 1/16/7
f 11/18/8 1/24/8 3/19/8
f 3/19/8 5/25/8 7/26/8
f 7/26/8 9/17/8 3/19/8
o Nez_Cylinder.002
v 0.000000 -0.033409 -0.098000
v 0.084870 -0.033409 -0.049000
v 0.084870 -0.033409 0.049000
v -0.000000 -0.033409 0.098000
v -0.084870 -0.033409 0.049000
v -0.084870 -0.033409 -0.049000
v 0.000000 -0.057909 -0.098000
v 0.084870 -0.057909 -0.049000
v 0.084870 -0.057909 0.049000
v -0.000000 -0.057909 0.098000
v -0.084870 -0.057909 0.049000
v -0.084870 -0.057909 -0.049000
v 0.000000 -0.082409 -0.069710
v 0.060370 -0.082409 -0.034855
v 0.060370 -0.082409 0.034855
v -0.000000 -0.082409 0.069710
v -0.060370 -0.082409 0.034855
v -0.060370 -0.082409 -0.034855
v 0.000000 -0.082409 -0.098000
v 0.084870 -0.082409 -0.049000
v 0.084870 -0.082409 0.049000
v -0.000000 -0.082409 0.098000
v -0.084870 -0.082409 0.049000
v -0.084870 -0.082409 -0.049000
v 0.000000 -0.057909 -0.069710
v 0.060370 -0.057909 -0.034855
v 0.060370 -0.057909 0.034855
v -0.000000 -0.057909 0.069710
v -0.060370 -0.057909 0.034855
v -0.060370 -0.057909 -0.034855
v 0.128009 -0.095884 -0.034300
v 0.128009 -0.095884 0.034300
v 0.128009 -0.113034 -0.034300
v 0.128009 -0.113034 0.034300
v -0.034300 -0.095884 0.128009
v -0.093709 -0.095884 0.093709
v -0.034300 -0.113034 0.128009
v -0.093709 -0.113034 0.093709
v -0.093709 -0.095884 -0.093709
v -0.034300 -0.095884 -0.128009
v -0.093709 -0.113034 -0.093709
v -0.034300 -0.113034 -0.128009
vt 0.750000 0.010000
vt 0.957846 0.130000
vt 0.957846 0.370000
vt 0.957846 0.370000
vt 0.750000 0.490000
vt 0.750000 0.490000
vt 0.750000 0.010000
vt 0.957846 0.130000
vt 0.750000 0.490000
vt 0.750000 0.490000
vt 0.542154 0.130000
vt 0.542154 0.130000
vt 0.542154 0.130000
vt 0.957846 0.130000
vt 0.897846 0.335359
vt 0.750000 0.420718
vt 0.750000 0.420718
vt 0.542154 0.370000
vt 0.542154 0.370000
vt 0.750000 0.010000
vt 0.957846 0.370000
vt 0.957846 0.130000
vt 0.897846 0.164641
vt 0.750000 0.079282
vt 0.602154 0.164641
vt 0.542154 0.130000
vt 0.602154 0.335359
vt 0.897846 0.335359
vt 0.750000 0.079282
vt 0.602154 0.335359
vt 0.602154 0.164641
vt 0.897846 0.164641
vt 0.957846 0.370000
vt 0.957846 0.370000
vt 0.957846 0.130000
vt 0.750000 0.010000
vt 0.750000 0.010000
vt 0.542154 0.130000
vt 0.542154 0.370000
vt 0.542154 0.370000
vt 0.750000 0.490000
vt 0.542154 0.370000
vn 0.0000 1.0000 0.0000
vn 0.5000 0.0000 -0.8660
vn 0.5000 0.0000 0.8660
vn 0.6585 0.0000 -0.7526
vn -0.9810 0.0000 -0.1939
vn 0.3225 0.0000 0.9466
vn -0.5000 0.0000 0.8660
vn -0.5000 0.0000 -0.8660
vn 1.0000 0.0000 0.0000
vn 0.0000 -1.0000 -0.0000
vn -1.0000 0.0000 -0.0000
vn -0.7875 -0.6163 0.0000
vn 0.3225 0.0000 -0.9466
vn 0.8229 0.5682 0.0000
vn 0.3938 -0.6163 -0.6820
vn -0.4114 0.5682 0.7126
vn 0.6585 0.0000 0.7526
vn 0.3938 -0.6163 0.6820
vn -0.4114 0.5682 -0.7126
vn -0.9810 0.0000 0.1939
usemtl mat_Reactor
s off
f 16/27/9 15/28/9 14/29/9
f 20/30/10 31/31/10 19/32/10
f 22/33/11 21/34/11 16/27/11
f 19/32/12 52/35/12 13/36/12
f 23/37/13 48/38/13 17/39/13
f 21/34/14 44/40/14 15/28/14
f 26/41/15 37/42/15 25/43/15
f 19/32/16 36/44/16 24/45/16
f 23/37/15 34/46/15 22/33/15
f 21/34/17 32/47/17 20/30/17
f 25/43/18 32/47/18 26/41/18
f 26/41/18 33/48/18 27/49/18
f 27/49/18 34/46/18 28/50/18
f 29/51/18 34/46/18 35/52/18
f 29/51/18 36/44/18 30/53/18
f 25/43/18 36/44/18 31/31/18
f 38/54/18 40/55/18 42/56/18
f 25/43/11 42/56/11 30/53/11
f 29/51/10 40/55/10 28/50/10
f 27/49/19 38/54/19 26/41/19
f 30/53/17 41/57/17 29/51/17
f 28/50/16 39/58/16 27/49/16
f 44/40/17 45/59/17 43/60/17
f 20/30/20 46/61/20 21/34/20
f 20/30/21 43/60/21 45/59/21
f 15/28/22 43/60/22 14/29/22
f 48/38/15 49/62/15 47/63/15
f 22/33/23 50/64/23 23/37/23
f 17/39/24 47/63/24 16/27/24
f 22/33/25 47/63/25 49/62/25
f 52/35/16 53/65/16 51/66/16
f 19/32/26 53/65/26 54/67/26
f 13/36/27 51/66/27 18/68/27
f 24/45/28 51/66/28 53/65/28
f 24/45/19 35/52/19 23/37/19
f 14/29/9 13/36/9 16/27/9
f 13/36/9 18/68/9 16/27/9
f 18/68/9 17/39/9 16/27/9
f 19/32/10 13/36/10 14/29/10
f 20/30/10 32/47/10 31/31/10
f 19/32/10 14/29/10 20/30/10
f 22/33/11 34/46/11 33/48/11
f 21/34/11 15/28/11 16/27/11
f 22/33/11 33/48/11 21/34/11
f 19/32/12 54/67/12 52/35/12
f 23/37/13 50/64/13 48/38/13
f 21/34/14 46/61/14 44/40/14
f 26/41/15 38/54/15 37/42/15
f 19/32/16 31/31/16 36/44/16
f 23/37/15 35/52/15 34/46/15
f 21/34/17 33/48/17 32/47/17
f 25/43/18 31/31/18 32/47/18
f 26/41/18 32/47/18 33/48/18
f 27/49/18 33/48/18 34/46/18
f 29/51/18 28/50/18 34/46/18
f 29/51/18 35/52/18 36/44/18
f 25/43/18 30/53/18 36/44/18
f 42/56/18 37/42/18 38/54/18
f 38/54/18 39/58/18 40/55/18
f 40/55/18 41/57/18 42/56/18
f 25/43/11 37/42/11 42/56/11
f 29/51/10 41/57/10 40/55/10
f 27/49/19 39/58/19 38/54/19
f 30/53/17 42/56/17 41/57/17
f 28/50/16 40/55/16 39/58/16
f 44/40/17 46/61/17 45/59/17
f 20/30/20 45/59/20 46/61/20
f 20/30/21 14/29/21 43/60/21
f 15/28/22 44/40/22 43/60/22
f 48/38/15 50/64/15 49/62/15
f 22/33/23 49/62/23 50/64/23
f 17/39/24 48/38/24 47/63/24
f 22/33/25 16/27/25 47/63/25
f 52/35/16 54/67/16 53/65/16
f 19/32/26 24/45/26 53/65/26
f 13/36/27 52/35/27 51/66/27
f 24/45/28 18/68/28 51/66/28
f 23/37/19 17/39/19 18/68/19
f 24/45/19 36/44/19 35/52/19
f 23/37/19 18/68/19 24/45/19
o Queue_Cylinder.003
v 0.000000 0.162591 -0.098000
v 0.084870 0.162591 -0.049000
v 0.084870 0.162591 0.049000
v -0.000000 0.162591 0.098000
v -0.084870 0.162591 0.049000
v -0.084870 0.162591 -0.049000
v 0.000000 0.231191 -0.000000
v 0.000000 0.231191 -0.000000
v 0.000000 0.231191 -0.000000
v 0.000000 0.231191 -0.000000
v 0.000000 0.231191 -0.000000
v 0.000000 0.231191 -0.000000
vt 0.042154 0.370000
vt 0.250000 0.490000
vt 0.457846 0.130000
vt 0.042154 0.370000
vt 0.250000 0.010000
vt 0.457846 0.130000
vt 0.042154 0.130000
vt 0.250000 0.010000
vt 0.457846 0.370000
vt 0.457846 0.370000
vt 0.250000 0.490000
vt 0.042154 0.130000
vn 0.0000 -1.0000 -0.0000
vn 0.0000 0.0000 1.0000
vn 0.3143 0.7777 0.5444
vn 0.3143 0.7777 -0.5444
vn 0.0000 -0.8192 0.5735
vn 0.0000 0.0000 -1.0000
vn 0.0000 0.8192 -0.5735
vn 0.6286 0.7777 0.0000
vn -0.6286 0.7777 0.0000
vn -0.3143 0.7777 -0.5444
vn -0.3143 0.7777 0.5444
usemtl mat_Nez
s off
f 60/69/29 55/70/29 57/71/29
f 66/72/30 64/73/30 63/74/30
f 60/69/30 65/75/30 66/72/30
f 57/71/31 64/73/31 58/76/31
f 55/70/32 61/77/32 56/78/32
f 55/70/33 66/72/33 62/79/33
f 59/80/34 64/73/34 65/75/34
f 57/71/30 61/77/30 63/74/30
f 63/74/30 61/77/30 62/79/30
f 66/72/30 65/75/30 64/73/30
f 63/74/30 62/79/30 66/72/30
f 57/71/30 63/74/30 64/73/30
f 55/70/35 62/79/35 61/77/35
f 57/71/36 56/78/36 61/77/36
f 55/70/29 56/78/29 57/71/29
f 57/71/29 58/76/29 59/80/29
f 59/80/29 60/69/29 57/71/29
f 60/69/37 59/80/37 65/75/37
f 55/70/38 60/69/38 66/72/38
f 59/80/39 58/76/39 64/73/39
