# Blender v2.82 (sub 7) OBJ File: 'chizbox.blend'
# www.blender.org
mtllib chizbox_LOD1.mtl
o Cube_Cube.002
v -0.569400 -0.312000 -0.312000
v 0.546000 -0.343200 0.384429
v 0.575250 -0.312000 -0.312000
v -0.569400 0.312000 0.312000
v 0.569400 -0.312000 0.312000
v -0.507000 -0.374400 0.312000
v -0.507000 0.380250 0.312000
v 0.507000 0.312000 -0.380250
v 0.507000 -0.312000 -0.374400
v -0.507000 0.374400 -0.312000
v 0.507000 0.380250 -0.312000
v -0.585000 -0.390000 -0.390000
v -0.585000 -0.390000 0.390000
v -0.585000 0.390000 0.390000
v -0.579429 0.351000 -0.351000
v 0.585000 -0.390000 -0.390000
v 0.585000 0.390000 -0.390000
v 0.579429 0.351000 0.351000
v -0.507000 0.312000 -0.374400
v -0.507000 -0.312000 -0.380250
v -0.575250 -0.312000 0.312000
v -0.507000 -0.312000 0.374400
v -0.507000 0.312000 0.380250
v 0.507000 0.312000 0.374400
v -0.507000 -0.380250 -0.312000
v 0.507000 -0.370500 -0.312000
v 0.507000 -0.382200 0.312000
v 0.507000 0.374400 0.312000
v 0.569400 0.312000 -0.312000
vt 0.400000 0.983333
vt 0.625000 1.000000
vt 0.375000 1.000000
vt 0.600000 0.025000
vt 0.375000 0.000000
vt 0.625000 0.000000
vt 0.400000 0.225000
vt 0.612486 0.237486
vt 0.375000 0.250000
vt 0.600000 0.525000
vt 0.375000 0.500000
vt 0.625000 0.500000
vt 0.400000 0.725000
vt 0.612486 0.737486
vt 0.375000 0.750000
vt 0.600000 0.483333
vt 0.400000 0.483333
vt 0.641667 0.525000
vt 0.875000 0.500000
vt 0.858333 0.525000
vt 0.858333 0.725000
vt 0.641667 0.725000
vt 0.400000 0.025000
vt 0.400000 0.525000
vt 0.875000 0.750000
vt 0.600000 0.983333
vt 0.000026 0.933311
vt 0.066689 0.000026
vt 0.066689 0.999974
vt 0.672500 0.150000
vt 0.647500 0.375000
vt 0.647500 0.175000
vt 0.547306 0.825996
vt 0.452695 -0.451245
vt 0.547305 -0.309329
vt 0.400000 0.266667
vt 0.611185 0.023608
vt 0.688815 0.748145
vt 0.611185 0.696392
vt 0.121456 0.875356
vt 0.079730 0.312055
vt 0.121456 0.374644
vt 0.244419 0.747882
vt 0.190100 0.240906
vt 0.244419 0.277118
vt 0.200000 0.629167
vt 0.225000 0.862500
vt 0.200000 0.845833
vt 0.452695 0.967912
vt 0.688815 -0.028145
vt 0.079730 0.937945
vt 0.190100 0.784094
vt 0.225000 0.612500
vt 0.000032 0.899975
vt 0.100025 0.000032
vt 0.100025 0.999968
vt 0.030013 0.963298
vt 0.000027 0.066688
vt 0.066689 0.000026
vt 0.080026 0.933311
vt 0.080027 0.066688
vt 0.146689 0.000026
vt 0.338326 0.965089
vt 0.395007 0.199889
vt 0.395007 1.050111
vt 0.338326 0.284911
vt -0.327148 -0.016292
vt 1.327148 1.001737
vt -0.327148 1.001737
vt 0.000100 0.000100
vt 0.999900 0.999900
vt 0.000100 0.999900
vt -0.285445 0.011295
vt 1.295445 0.984150
vt -0.285445 0.984150
vt 1.309027 0.004859
vt -0.309027 1.000585
vt -0.309027 0.004860
vt -0.328196 0.997381
vt 1.328196 -0.021936
vt 1.328196 0.997382
vt 0.000100 0.000100
vt 0.999900 0.999900
vt 0.000100 0.999900
vt 1.327148 -0.016292
vt 0.999900 0.000100
vt 1.295445 0.011295
vt 1.309027 1.000586
vt -0.328196 -0.021937
vt 0.999900 0.000100
vn 0.1961 0.0000 0.9806
vn -0.9806 0.0000 -0.1961
vn -0.9800 -0.0031 0.1991
vn 0.9806 0.0000 0.1961
vn 0.9550 -0.0318 0.2949
vn -0.2049 -0.0092 -0.9787
vn -0.0050 0.8615 -0.5077
vn 0.0050 0.8615 0.5077
vn -0.9933 0.0093 -0.1149
vn 0.9933 0.0093 0.1149
vn -0.1240 0.0000 -0.9923
vn -0.0302 0.9951 0.0942
vn 0.0302 0.9951 -0.0942
vn 0.1149 -0.0093 0.9933
vn 0.0302 -0.0942 0.9951
vn -0.9800 -0.1991 0.0031
vn -0.9923 0.1240 0.0000
vn 0.9958 0.0791 0.0454
vn -0.3031 0.0089 -0.9529
vn 0.0057 0.1184 -0.9930
vn -0.0057 -0.1184 -0.9930
vn 0.1149 -0.9933 0.0093
vn 0.1149 0.9933 -0.0093
vn 0.0093 -0.9679 0.2513
vn -0.1149 0.9933 0.0093
vn -0.0075 -0.9791 -0.2033
vn -0.9787 0.2049 -0.0092
vn 0.8083 -0.5887 0.0076
vn 0.9800 -0.1991 -0.0031
vn 0.0726 0.0519 -0.9960
vn 0.0000 0.1961 -0.9806
vn -0.0450 0.4513 -0.8913
vn 0.1961 -0.9806 0.0000
vn -0.2813 0.9582 -0.0525
vn 0.0000 -0.9923 0.1240
vn 0.2813 0.9582 0.0525
vn 0.0390 -0.8884 0.4574
vn 0.2916 0.0320 0.9560
vn -0.0034 0.1994 0.9799
vn 0.0050 0.5077 0.8615
vn 0.6283 -0.7740 0.0784
vn -0.2595 -0.9656 -0.0181
vn -0.0058 -0.0094 -0.9999
vn -0.9998 -0.0143 0.0143
vn 0.0058 -0.0094 0.9999
vn -0.0077 -0.9998 -0.0187
vn 0.0058 0.9999 -0.0094
vn 0.9998 -0.0143 -0.0143
vn 0.0058 0.0094 -0.9999
vn -0.9999 0.0094 -0.0094
vn -0.0091 0.0148 0.9998
vn 0.0096 -0.9999 0.0094
vn -0.0058 0.9999 0.0094
vn 0.9999 0.0094 0.0094
usemtl Tex_face
s off
f 22/1/1 14/2/1 13/3/1
f 4/4/2 13/5/2 14/6/2
f 1/7/3 15/8/3 12/9/3
f 29/10/4 16/11/4 17/12/4
f 5/13/5 18/14/5 2/15/5
f 8/16/6 16/11/6 9/17/6
f 11/18/7 15/19/7 10/20/7
f 7/21/8 18/14/8 28/22/8
f 4/4/9 21/23/9 13/5/9
f 29/10/10 3/24/10 16/11/10
f 8/16/11 17/12/11 16/11/11
f 11/18/12 17/12/12 15/19/12
f 7/21/13 14/25/13 18/14/13
f 22/1/14 23/26/14 14/2/14
usemtl Tex_bord
f 23/27/15 18/28/15 14/29/15
f 14/30/16 15/31/16 4/32/16
f 21/23/17 12/9/17 13/5/17
f 3/24/18 2/15/18 16/11/18
f 20/33/19 15/34/19 19/35/19
f 9/17/20 12/9/20 20/36/20
f 19/37/21 17/38/21 8/39/21
f 6/40/22 12/41/22 25/42/22
f 10/20/23 14/25/23 7/21/23
f 25/43/24 16/44/24 26/45/24
f 28/22/25 17/12/25 11/18/25
f 27/46/26 13/47/26 6/48/26
f 21/23/27 1/7/27 12/9/27
f 3/24/28 5/13/28 2/15/28
f 18/14/29 29/10/29 17/12/29
f 20/33/30 12/49/30 15/34/30
f 9/17/31 16/11/31 12/9/31
f 19/37/32 15/50/32 17/38/32
f 6/40/33 13/51/33 12/41/33
f 10/20/34 15/19/34 14/25/34
f 25/43/35 12/52/35 16/44/35
f 28/22/36 18/14/36 17/12/36
f 27/46/37 2/53/37 13/47/37
f 24/54/38 2/55/38 18/56/38
f 2/57/39 22/58/39 13/59/39
f 23/60/40 24/61/40 18/62/40
f 27/63/41 16/64/41 2/65/41
f 27/63/42 26/66/42 16/64/42
usemtl Tex_chiz
f 9/67/43 19/68/43 8/69/43
f 1/70/44 4/71/44 15/72/44
f 22/73/45 24/74/45 23/75/45
f 6/76/46 26/77/46 27/78/46
f 28/79/47 10/80/47 7/81/47
f 5/82/48 29/83/48 18/84/48
f 9/67/49 20/85/49 19/68/49
f 1/70/50 21/86/50 4/71/50
f 22/73/51 2/87/51 24/74/51
f 6/76/52 25/88/52 26/77/52
f 28/79/53 11/89/53 10/80/53
f 5/82/54 3/90/54 29/83/54
