# Blender v2.82 (sub 7) OBJ File: 'chizbox.blend'
# www.blender.org
mtllib chizbox_LOD0.mtl
o Cube_Cube.002
v -0.507000 -0.312000 0.390000
v -0.507000 0.312000 0.390000
v -0.585000 -0.312000 -0.312000
v -0.585000 0.312000 -0.312000
v 0.507000 -0.312000 0.390000
v 0.507000 0.312000 0.390000
v 0.585000 -0.312000 -0.312000
v 0.585000 0.312000 -0.312000
v -0.585000 -0.312000 0.312000
v -0.585000 0.312000 0.312000
v 0.585000 0.312000 0.312000
v 0.585000 -0.312000 0.312000
v -0.507000 -0.312000 -0.390000
v -0.507000 -0.390000 0.312000
v -0.507000 0.390000 0.312000
v -0.507000 0.312000 -0.390000
v 0.507000 0.312000 -0.390000
v 0.507000 -0.312000 -0.390000
v 0.507000 -0.390000 0.312000
v 0.507000 0.390000 0.312000
v -0.507000 0.390000 -0.312000
v -0.507000 -0.390000 -0.312000
v 0.507000 -0.390000 -0.312000
v 0.507000 0.390000 -0.312000
v -0.585000 -0.390000 -0.390000
v -0.585000 -0.390000 0.390000
v -0.585000 0.390000 0.390000
v -0.585000 0.390000 -0.390000
v 0.585000 -0.390000 -0.390000
v 0.585000 0.390000 -0.390000
v 0.585000 -0.390000 0.390000
v 0.585000 0.390000 0.390000
v -0.507000 0.312000 -0.351000
v -0.507000 -0.312000 -0.351000
v 0.507000 -0.312000 -0.351000
v 0.507000 0.312000 -0.351000
v -0.546000 -0.312000 -0.312000
v -0.546000 -0.312000 0.312000
v -0.546000 0.312000 0.312000
v -0.546000 0.312000 -0.312000
v -0.507000 -0.312000 0.351000
v -0.507000 0.312000 0.351000
v 0.507000 0.312000 0.351000
v 0.507000 -0.312000 0.351000
v -0.507000 -0.351000 -0.312000
v -0.507000 -0.351000 0.312000
v 0.507000 -0.351000 -0.312000
v 0.507000 -0.351000 0.312000
v -0.507000 0.351000 0.312000
v -0.507000 0.351000 -0.312000
v 0.507000 0.351000 -0.312000
v 0.507000 0.351000 0.312000
v 0.546000 0.312000 -0.312000
v 0.546000 -0.312000 -0.312000
v 0.546000 -0.312000 0.312000
v 0.546000 0.312000 0.312000
vt 0.358333 0.725000
vt 0.141667 0.725000
vt 0.141667 0.725000
vt 0.641667 0.725000
vt 0.641667 0.525000
vt 0.641667 0.525000
vt 0.600000 0.266667
vt 0.600000 0.483333
vt 0.600000 0.483333
vt 0.600000 0.725000
vt 0.400000 0.725000
vt 0.400000 0.725000
vt 0.400000 0.266667
vt 0.600000 0.266667
vt 0.400000 0.983333
vt 0.625000 1.000000
vt 0.375000 1.000000
vt 0.600000 0.025000
vt 0.375000 0.000000
vt 0.625000 0.000000
vt 0.400000 0.225000
vt 0.625000 0.250000
vt 0.375000 0.250000
vt 0.600000 0.525000
vt 0.375000 0.500000
vt 0.625000 0.500000
vt 0.625000 0.750000
vt 0.375000 0.750000
vt 0.400000 0.483333
vt 0.875000 0.500000
vt 0.858333 0.525000
vt 0.858333 0.725000
vt 0.641667 0.725000
vt 0.400000 0.483333
vt 0.400000 0.266667
vt 0.400000 0.025000
vt 0.600000 0.025000
vt 0.600000 0.225000
vt 0.600000 0.225000
vt 0.400000 0.225000
vt 0.400000 0.025000
vt 0.600000 0.983333
vt 0.400000 0.983333
vt 0.600000 0.766667
vt 0.600000 0.983333
vt 0.400000 0.766667
vt 0.600000 0.766667
vt 0.358333 0.525000
vt 0.358333 0.725000
vt 0.141667 0.525000
vt 0.358333 0.525000
vt 0.141667 0.525000
vt 0.858333 0.525000
vt 0.858333 0.725000
vt 0.400000 0.525000
vt 0.400000 0.525000
vt 0.600000 0.525000
vt 0.600000 0.725000
vt 0.875000 0.750000
vt 0.400000 0.766667
vt 0.000026 0.933311
vt 0.066689 0.000026
vt 0.066689 0.999974
vt 0.000026 0.933311
vt 0.066689 0.000026
vt 0.066689 0.999974
vt 0.672500 0.150000
vt 0.647500 0.375000
vt 0.647500 0.175000
vt 0.547306 0.825996
vt 0.452695 -0.451245
vt 0.547305 -0.309329
vt 0.611185 0.023608
vt 0.688815 0.748145
vt 0.611185 0.696392
vt 0.121456 0.875356
vt 0.079730 0.312055
vt 0.121456 0.374644
vt 0.244419 0.747882
vt 0.190100 0.240906
vt 0.244419 0.277118
vt 0.200000 0.629167
vt 0.225000 0.862500
vt 0.200000 0.845833
vt 0.468526 0.633268
vt 0.468526 -0.070319
vt 0.556474 -0.158268
vt 0.452695 0.967912
vt 0.688815 -0.028145
vt 0.079730 0.937945
vt 0.190100 0.784094
vt 0.225000 0.612500
vt 0.000032 0.899975
vt 0.100025 0.000032
vt 0.100025 0.999968
vt 0.000027 0.066688
vt 0.080026 0.933311
vt 0.080027 0.066688
vt 0.146689 0.000026
vt 0.075032 0.899975
vt 0.075032 0.100025
vt 0.175025 0.000032
vt 0.999980 0.000020
vt 0.000020 0.038480
vt 0.000020 0.000020
vt 0.338326 0.965089
vt 0.395007 0.199889
vt 0.395007 1.050111
vt 0.999980 0.038481
vt 0.338326 0.284911
vt -0.327148 -0.016292
vt 1.327148 1.001737
vt -0.327148 1.001737
vt 0.000100 0.000100
vt 0.999900 0.999900
vt 0.000100 0.999900
vt -0.285445 0.011295
vt 1.295445 0.984150
vt -0.285445 0.984150
vt 1.309027 0.004859
vt -0.309027 1.000585
vt -0.309027 0.004860
vt -0.328196 0.997381
vt 1.328196 -0.021936
vt 1.328196 0.997382
vt 0.000100 0.000100
vt 0.999900 0.999900
vt 0.000100 0.999900
vt 1.327148 -0.016292
vt 0.999900 0.000100
vt 1.295445 0.011295
vt 1.309027 1.000586
vt -0.328196 -0.021937
vt 0.999900 0.000100
vn 0.0000 0.0000 -1.0000
vn -1.0000 0.0000 0.0000
vn 0.0000 -1.0000 0.0000
vn 1.0000 0.0000 0.0000
vn 0.0000 0.0000 1.0000
vn 0.0000 1.0000 -0.0000
usemtl Tex_face
s off
f 48/1/1 14/2/1 46/3/1
f 52/4/2 24/5/2 51/6/2
f 33/7/3 17/8/3 36/9/3
f 56/10/1 12/11/1 55/12/1
f 34/13/4 16/14/4 33/7/4
f 1/15/5 27/16/5 26/17/5
f 10/18/2 26/19/2 27/20/2
f 3/21/2 28/22/2 25/23/2
f 8/24/4 29/25/4 30/26/4
f 12/11/4 32/27/4 31/28/4
f 17/8/1 29/25/1 18/29/1
f 24/5/6 28/30/6 21/31/6
f 15/32/6 32/27/6 20/33/6
f 36/9/2 18/29/2 35/34/2
f 35/34/6 13/35/6 34/13/6
f 38/36/1 10/18/1 39/37/1
f 39/37/3 4/38/3 40/39/3
f 37/40/6 9/41/6 38/36/6
f 42/42/4 1/15/4 41/43/4
f 43/44/3 2/45/3 42/42/3
f 44/46/2 6/47/2 43/44/2
f 47/48/2 19/49/2 48/1/2
f 45/50/5 23/51/5 47/48/5
f 46/3/4 22/52/4 45/50/4
f 51/6/5 21/31/5 50/53/5
f 50/53/4 15/32/4 49/54/4
f 49/54/1 20/33/1 52/4/1
f 55/12/6 7/55/6 54/56/6
f 53/57/3 11/58/3 56/10/3
f 54/56/5 8/24/5 53/57/5
f 40/39/5 3/21/5 37/40/5
f 10/18/2 9/41/2 26/19/2
f 8/24/4 7/55/4 29/25/4
f 12/11/4 11/58/4 32/27/4
f 17/8/1 30/26/1 29/25/1
f 24/5/6 30/26/6 28/30/6
f 15/32/6 27/59/6 32/27/6
f 1/15/5 2/45/5 27/16/5
f 48/1/1 19/49/1 14/2/1
f 52/4/2 20/33/2 24/5/2
f 33/7/3 16/14/3 17/8/3
f 56/10/1 11/58/1 12/11/1
f 34/13/4 13/35/4 16/14/4
f 36/9/2 17/8/2 18/29/2
f 35/34/6 18/29/6 13/35/6
f 38/36/1 9/41/1 10/18/1
f 39/37/3 10/18/3 4/38/3
f 37/40/6 3/21/6 9/41/6
f 42/42/4 2/45/4 1/15/4
f 43/44/3 6/47/3 2/45/3
f 44/46/2 5/60/2 6/47/2
f 47/48/2 23/51/2 19/49/2
f 45/50/5 22/52/5 23/51/5
f 46/3/4 14/2/4 22/52/4
f 51/6/5 24/5/5 21/31/5
f 50/53/4 21/31/4 15/32/4
f 49/54/1 15/32/1 20/33/1
f 55/12/6 12/11/6 7/55/6
f 53/57/3 8/24/3 11/58/3
f 54/56/5 7/55/5 8/24/5
f 40/39/5 4/38/5 3/21/5
usemtl Tex_bord
f 5/61/5 26/62/5 31/63/5
f 2/64/5 32/65/5 27/66/5
f 27/67/2 4/68/2 10/69/2
f 9/41/2 25/23/2 26/19/2
f 7/55/4 31/28/4 29/25/4
f 11/58/4 30/26/4 32/27/4
f 13/70/1 28/71/1 16/72/1
f 18/29/1 25/23/1 13/35/1
f 16/73/1 30/74/1 17/75/1
f 14/76/3 25/77/3 22/78/3
f 21/31/6 27/59/6 15/32/6
f 22/79/3 29/80/3 23/81/3
f 20/33/6 30/26/6 24/5/6
f 19/82/3 26/83/3 14/84/3
f 9/41/2 3/21/2 25/23/2
f 3/85/2 4/86/2 28/87/2
f 7/55/4 12/11/4 31/28/4
f 11/58/4 8/24/4 30/26/4
f 13/70/1 25/88/1 28/71/1
f 18/29/1 29/25/1 25/23/1
f 16/73/1 28/89/1 30/74/1
f 14/76/3 26/90/3 25/77/3
f 21/31/6 28/30/6 27/59/6
f 22/79/3 25/91/3 29/80/3
f 20/33/6 32/27/6 30/26/6
f 19/82/3 31/92/3 26/83/3
f 6/93/5 31/94/5 32/95/5
f 5/61/5 1/96/5 26/62/5
f 2/97/5 6/98/5 32/99/5
f 27/20/2 28/22/2 4/38/2
f 6/100/5 5/101/5 31/102/5
f 41/103/6 5/104/6 44/105/6
f 19/106/3 29/107/3 31/108/3
f 41/103/6 1/109/6 5/104/6
f 19/106/3 23/110/3 29/107/3
usemtl Tex_chiz
f 35/111/1 33/112/1 36/113/1
f 37/114/2 39/115/2 40/116/2
f 41/117/5 43/118/5 42/119/5
f 46/120/3 47/121/3 48/122/3
f 52/123/6 50/124/6 49/125/6
f 55/126/4 53/127/4 56/128/4
f 35/111/1 34/129/1 33/112/1
f 37/114/2 38/130/2 39/115/2
f 41/117/5 44/131/5 43/118/5
f 46/120/3 45/132/3 47/121/3
f 52/123/6 51/133/6 50/124/6
f 55/126/4 54/134/4 53/127/4
