# Blender v2.82 (sub 7) OBJ File: 'rond1.blend'
# www.blender.org
mtllib rond1.mtl
o Tronc_Cylinder
v -1.978515 0.170747 -0.969441
v 1.978515 0.363709 -1.046298
v -1.978515 -0.359125 -0.338212
v 1.978515 -0.334755 -0.412008
v -1.978515 -0.130999 0.827302
v 1.978515 -0.192941 0.758997
v -1.978515 1.220796 0.655136
v 1.978515 1.045524 0.827302
v 1.978515 1.242605 -0.485754
v -1.978515 1.030496 -0.801858
vt 0.993750 0.971810
vt 0.002500 0.888123
vt 0.993750 0.826163
vt 0.993750 0.372083
vt 0.002500 0.196428
vt 0.993750 0.183853
vt 0.993750 0.610598
vt 0.002500 0.387440
vt 0.002500 0.650803
vt 0.002500 0.054242
vt 0.993750 0.031560
vt 0.002500 1.000000
vt 0.089414 0.145088
vt 0.730821 1.025397
vt 0.897762 0.029730
vt 0.920158 0.075642
vt 0.581824 1.027388
vt 0.168995 0.032373
vt 0.014106 0.721218
vt 1.097957 0.658813
vt 0.126587 0.862335
vt 1.059402 0.695347
vn 0.0385 0.5373 -0.8425
vn 0.0084 -0.9927 0.1202
vn 0.0164 -0.0551 0.9983
vn 0.0373 0.9882 0.1483
vn 0.0184 -0.6722 -0.7402
vn -0.0284 0.1912 -0.9811
vn -0.0120 -0.9813 0.1921
vn -0.0375 0.1263 0.9913
vn -0.0428 0.9907 -0.1294
vn -0.0073 -0.7659 -0.6429
vn -1.0000 0.0000 0.0000
vn 1.0000 -0.0000 0.0000
usemtl Bois_tronc
s off
f 2/1/1 10/2/1 9/3/1
f 6/4/2 3/5/2 4/6/2
f 8/7/3 5/8/3 6/4/3
f 9/3/4 7/9/4 8/7/4
f 4/6/5 1/10/5 2/11/5
f 2/1/6 1/12/6 10/2/6
f 6/4/7 5/8/7 3/5/7
f 8/7/8 7/9/8 5/8/8
f 9/3/9 10/2/9 7/9/9
f 4/6/10 3/5/10 1/10/10
usemtl Creux
f 7/13/11 1/14/11 5/15/11
f 6/16/12 2/17/12 8/18/12
f 9/19/12 8/18/12 2/17/12
f 1/14/11 3/20/11 5/15/11
f 7/13/11 10/21/11 1/14/11
f 6/16/12 4/22/12 2/17/12
o branches_Cylinder.001
v 1.367581 1.170155 -0.177609
v 1.090923 1.443458 -0.158674
v 1.471185 1.170074 -0.056035
v 1.484904 1.170074 0.004070
v 1.438543 1.170106 0.165358
v 1.278302 1.442873 -0.035210
v 1.309485 1.170074 0.224038
v 1.202185 1.441638 0.159742
v 1.247834 1.170074 0.224038
v 1.090094 1.170211 0.149334
v 1.047706 1.442418 0.162345
v 1.150015 1.170125 -0.155882
v 0.947542 1.443239 0.025802
v 1.198529 1.671886 0.192548
v 1.393832 1.672146 0.256607
v 1.229578 1.671931 0.384021
v -1.229162 1.175829 0.790868
v -1.002757 1.192012 0.331855
v -1.088588 1.282514 0.701552
v -0.903161 1.081231 0.565908
v -0.952386 1.260039 0.793751
v -0.969854 1.181047 0.926969
v -1.124539 0.987632 0.624688
v -1.258567 1.015018 0.517293
v -1.124468 1.125265 0.950055
v -1.214428 1.133066 0.335903
v -0.985071 1.479652 0.747976
v -0.941235 1.403790 0.896136
v -1.096741 1.377397 0.871614
v -0.274742 0.116375 1.124315
v -0.064690 0.373045 0.939275
v -0.153439 0.180812 1.122710
v 0.095506 0.300719 0.889353
v -0.031509 0.149019 1.086778
v 0.109910 0.112763 0.829441
v -0.015868 -0.008886 1.037538
v -0.065712 0.011014 0.828717
v -0.142322 -0.093500 1.034655
v -0.230980 0.127739 0.892816
v -0.200486 0.295362 0.938955
v -0.320249 0.080291 1.306921
v -0.222084 -0.031632 1.254953
v -0.353224 -0.098456 1.257729
v 0.095387 0.536797 -1.196326
v 0.164694 0.819335 -0.787161
v 0.171255 0.675498 -1.113657
v 0.066684 0.790388 -1.081788
v -0.051420 0.789218 -0.829824
v -0.094693 0.615853 -0.917020
v -0.109123 0.735389 -1.131740
v 0.062193 0.491432 -0.954988
v -0.063797 0.560108 -1.205731
v 0.248781 0.570566 -0.892909
v 0.031877 0.917135 -1.251329
v -0.062693 1.077445 -1.188697
v -0.126054 0.932587 -1.264693
vt 0.015773 0.379891
vt 0.040280 0.845106
vt 0.030874 0.384588
vt 0.017337 0.166469
vt 0.027297 0.323065
vt 0.013763 0.155695
vt 0.009830 0.084573
vt 0.018289 0.179487
vt 0.008540 0.285848
vt 0.020197 0.177265
vt 0.036142 0.039330
vt 0.023353 0.000021
vt 0.040808 0.112971
vt 0.034676 0.836633
vt 0.018325 0.346969
vt 0.021603 0.932974
vt 0.020289 1.000000
vt 0.135916 0.500000
vt 0.289650 1.000000
vt 0.561037 0.379108
vt 0.775425 0.474149
vt 0.554054 0.125045
vt 0.670107 1.000000
vt 0.461081 1.000000
vt 0.482482 1.000000
vt 0.847527 1.000000
vt 0.969213 0.500000
vt 0.949405 1.000000
vt 0.673865 1.000000
vt 0.529039 0.500000
vt 0.689521 0.500000
vt 0.238354 1.000000
vt 0.323790 1.000000
vt 0.094487 1.000000
vt 0.312443 1.000000
vt 0.079939 1.000000
vt 0.170854 0.500000
vt 0.845709 1.000000
vt 0.787557 0.500000
vt 0.707895 1.000000
vt 0.679985 0.500000
vt 0.837059 0.500000
vt 0.493350 0.500000
vt 0.551522 0.357443
vt 0.777233 0.039897
vt 0.537161 0.152188
vt 0.224877 1.000000
vt 0.520857 0.500000
vt 0.631781 1.000000
vt 0.952807 0.500000
vt 0.740213 0.024742
vt 0.789700 0.482197
vt 0.960769 0.151159
vt 0.154777 0.500000
vt 0.340227 0.500000
vt 0.840644 1.000000
vt 0.327413 0.500000
vt 0.966457 1.000000
vt 0.503043 1.000000
vt 0.865958 1.000000
vt 0.967251 0.500000
vt 0.990257 1.000000
vt 0.325239 1.000000
vt 0.532292 1.000000
vt 0.807049 0.470008
vt 0.791406 1.000000
vt 0.653614 1.000000
vt 0.486913 1.000000
vt 0.025492 0.500000
vt 0.275514 1.000000
vt 0.952438 0.166226
vt 0.792284 0.024823
vt 0.318718 0.500000
vt 0.018255 0.500000
vt 0.967052 0.303088
vt 1.000000 1.000000
vt 0.574914 0.402815
vt 0.947071 0.370140
vt 0.011493 0.500000
vt 0.548656 0.143021
vt 0.856356 0.617676
vt 0.238411 0.892700
vt 0.391263 0.070001
vn 0.0085 -0.6982 0.7159
vn 0.7963 0.5769 -0.1818
vn 0.7624 0.6089 0.2190
vn -0.0993 -0.0316 -0.9946
vn 0.0000 0.2304 0.9731
vn -0.4255 -0.1092 0.8983
vn 0.3870 0.3544 0.8513
vn 0.4694 -0.6441 0.6040
vn -0.8417 -0.5141 -0.1651
vn -0.8043 0.0671 0.5904
vn -0.4785 0.7958 -0.3710
vn 0.0000 -1.0000 -0.0005
vn -0.0002 -1.0000 -0.0013
vn 0.4345 0.6166 -0.6565
vn -0.7096 0.6952 0.1149
vn -0.0003 -1.0000 0.0002
vn 0.6563 0.5067 -0.5590
vn 0.1876 0.7961 -0.5753
vn -0.9550 0.2442 -0.1685
vn -0.1189 -0.4239 0.8978
vn 0.9911 -0.1191 0.0593
vn -0.3838 0.7363 0.5573
vn -0.1272 0.9904 -0.0550
vn 0.0385 -0.1367 -0.9899
vn 0.1029 0.1234 0.9870
vn -0.7943 -0.4826 0.3691
vn 0.2708 0.9477 -0.1691
vn 0.4619 0.5345 0.7078
vn 0.8675 -0.0895 0.4893
vn 0.2241 -0.8402 -0.4939
vn -0.7642 0.2667 0.5873
vn 0.8791 0.4483 -0.1619
vn 0.3660 0.6366 0.6788
vn -0.2621 0.9215 -0.2864
vn -0.1633 0.2882 -0.9435
vn -0.6058 -0.7907 0.0878
vn -0.4677 0.8820 0.0577
vn -0.6128 -0.5632 -0.5544
vn -0.8070 0.4984 -0.3167
vn 0.4920 -0.8477 -0.1982
vn -0.9542 0.2290 -0.1925
vn 0.8784 -0.2311 -0.4183
vn 0.4256 -0.8193 0.3842
vn 0.2240 -0.8409 -0.4927
vn 0.6666 0.6870 -0.2893
vn 0.5478 -0.0918 -0.8316
vn 0.5800 0.1358 0.8032
vn -0.3247 0.1981 0.9248
vn 0.4193 -0.9010 -0.1117
vn -0.9739 0.1642 0.1569
vn 0.8632 0.5046 0.0118
vn -0.9705 -0.1864 -0.1529
vn -0.1185 -0.4224 0.8986
vn 0.7198 0.0198 -0.6939
vn 0.7054 0.5037 0.4988
vn -0.9002 0.1876 0.3929
vn 0.4421 -0.8262 0.3494
vn -0.7774 -0.1742 -0.6044
vn 0.7200 0.6327 0.2851
vn 0.4696 0.5245 -0.7102
vn 0.0001 -1.0000 -0.0007
vn 0.0176 0.2332 0.9723
vn -0.0003 -1.0000 0.0001
vn -0.7974 -0.1521 0.5840
vn 0.6847 -0.6798 0.2630
vn -0.0002 -1.0000 0.0000
vn 0.9667 0.0943 -0.2377
vn -0.4139 0.7212 0.5555
vn 0.9844 0.0607 0.1651
vn -0.2652 0.9567 -0.1199
vn 0.0694 -0.1446 -0.9870
vn -0.9606 0.2721 -0.0567
vn 0.2246 -0.8404 -0.4933
vn 0.7258 -0.1383 0.6739
vn -0.6386 0.7640 -0.0925
vn 0.8705 -0.0658 0.4877
vn -0.1627 0.2892 -0.9433
vn -0.4475 -0.8236 0.3485
vn 0.3648 0.5491 0.7519
vn -0.9723 -0.2259 -0.0604
vn -0.5471 -0.6465 -0.5316
vn -0.6996 0.6092 -0.3734
vn 0.5472 -0.8107 -0.2079
vn -0.1633 0.2893 -0.9432
vn 0.5039 -0.7667 0.3978
vn -0.1304 -0.9710 -0.2004
vn 0.9169 0.3717 -0.1453
vn -0.9601 0.2216 -0.1706
vn -0.1993 0.3110 0.9293
vn -0.1187 -0.4222 0.8987
vn -0.1628 0.2877 -0.9438
vn 0.3633 -0.8786 0.3100
vn 0.1678 -0.2902 0.9421
vn -0.0013 1.0000 -0.0000
vn -0.2207 0.8401 0.4955
vn 0.1173 0.4207 -0.8996
usemtl Bos_Branche
s off
f 18/23/13 26/24/13 21/25/13
f 13/26/14 16/27/14 14/28/14
f 14/28/15 16/27/15 15/29/15
f 22/30/16 12/31/16 11/32/16
f 18/23/17 19/33/17 17/34/17
f 21/25/18 20/35/18 19/33/18
f 18/23/19 17/34/19 15/29/19
f 18/23/20 25/36/20 26/24/20
f 20/35/21 23/37/21 22/30/21
f 21/25/22 26/24/22 23/37/22
f 23/37/23 24/38/23 12/31/23
f 15/29/24 17/34/24 19/33/24
f 19/33/25 20/35/25 15/29/25
f 16/27/26 12/31/26 25/36/26
f 23/37/27 26/24/27 24/38/27
f 22/30/28 14/28/28 20/35/28
f 11/32/29 16/27/29 13/26/29
f 12/31/30 24/38/30 25/36/30
f 40/39/31 49/40/31 53/41/31
f 61/42/32 63/43/32 59/44/32
f 31/45/33 38/46/33 32/47/33
f 42/48/34 50/49/34 40/50/34
f 57/51/35 58/52/35 55/53/35
f 62/54/36 64/55/36 54/56/36
f 32/47/37 38/46/37 35/57/37
f 27/58/38 34/59/38 35/57/38
f 29/60/39 31/45/39 28/61/39
f 44/62/40 43/63/40 41/64/40
f 44/62/41 45/65/41 43/63/41
f 34/66/42 30/67/42 33/68/42
f 27/58/43 35/57/43 39/69/43
f 31/45/44 30/70/44 28/61/44
f 42/48/45 51/71/45 44/62/45
f 29/60/46 28/61/46 36/72/46
f 45/73/47 50/74/47 43/75/47
f 62/54/48 61/76/48 59/77/48
f 40/50/49 51/78/49 42/48/49
f 47/79/50 53/41/50 49/40/50
f 29/60/51 39/69/51 37/80/51
f 46/81/52 47/79/52 45/65/52
f 51/71/53 40/39/53 53/41/53
f 56/82/54 63/83/54 54/84/54
f 48/85/55 52/86/55 53/41/55
f 30/67/56 34/66/56 36/87/56
f 57/51/57 55/53/57 56/82/57
f 29/60/58 37/88/58 31/45/58
f 44/62/59 51/71/59 52/86/59
f 57/51/60 65/89/60 60/90/60
f 61/76/61 54/56/61 63/91/61
f 60/90/62 59/77/62 58/52/62
f 56/82/63 64/55/63 65/89/63
f 60/90/64 66/92/64 62/54/64
f 59/44/65 55/93/65 58/94/65
f 56/82/66 54/84/66 64/55/66
f 57/51/67 56/82/67 65/89/67
f 60/90/68 65/89/68 66/92/68
f 30/70/69 35/57/69 33/95/69
f 22/30/70 23/37/70 12/31/70
f 15/29/71 16/27/71 18/23/71
f 11/32/72 12/31/72 16/27/72
f 22/30/73 11/32/73 13/26/73
f 18/23/74 21/25/74 19/33/74
f 20/35/75 14/28/75 15/29/75
f 21/25/76 23/37/76 20/35/76
f 18/23/77 16/27/77 25/36/77
f 22/30/78 13/26/78 14/28/78
f 31/45/79 37/88/79 38/46/79
f 42/48/80 41/64/80 50/49/80
f 31/45/81 32/47/81 30/70/81
f 57/51/82 60/90/82 58/52/82
f 62/54/83 66/92/83 64/55/83
f 27/58/84 36/96/84 34/59/84
f 28/97/85 30/67/85 36/87/85
f 46/81/86 44/62/86 52/86/86
f 36/72/87 27/98/87 29/60/87
f 44/62/88 46/81/88 45/65/88
f 45/73/89 49/99/89 50/74/89
f 35/57/90 34/59/90 33/95/90
f 41/64/91 42/48/91 44/62/91
f 60/90/92 62/54/92 59/77/92
f 47/79/93 48/85/93 53/41/93
f 29/60/94 27/58/94 39/69/94
f 46/81/95 48/85/95 47/79/95
f 43/75/96 50/74/96 41/100/96
f 48/85/97 46/81/97 52/86/97
f 61/76/98 62/54/98 54/56/98
f 56/82/99 55/53/99 63/83/99
f 40/39/100 50/101/100 49/40/100
f 35/57/101 38/46/101 39/69/101
f 59/44/102 63/43/102 55/93/102
f 45/73/103 47/102/103 49/99/103
f 30/70/104 32/47/104 35/57/104
usemtl Creux
f 52/86/105 51/71/105 53/41/105
f 25/103/106 24/104/106 26/105/106
f 39/69/107 38/46/107 37/88/107
f 66/92/108 65/89/108 64/55/108
l 13 19
l 14 17
