# Blender v2.82 (sub 7) OBJ File: 'chizbox.blend'
# www.blender.org
mtllib snowbox_LOD1.mtl
o Cube_Cube.002
v -0.575250 -0.312000 -0.312000
v 0.507000 -0.312000 0.374400
v 0.569400 -0.312000 -0.312000
v 0.579429 -0.351000 0.351000
v -0.507000 -0.380250 0.312000
v -0.507000 0.374400 0.312000
v 0.507000 0.312000 -0.374400
v 0.507000 -0.312000 -0.380250
v -0.507000 0.380250 -0.312000
v 0.507000 0.374400 -0.312000
v -0.585000 -0.390000 -0.390000
v -0.585000 -0.390000 0.390000
v -0.579429 0.351000 0.351000
v -0.585000 0.390000 -0.390000
v 0.585000 -0.390000 -0.390000
v 0.579429 0.351000 -0.351000
v 0.585000 0.390000 0.390000
v -0.507000 0.312000 -0.380250
v -0.507000 -0.312000 -0.374400
v -0.569400 -0.312000 0.312000
v -0.569400 0.312000 -0.312000
v -0.507000 -0.312000 0.380250
v -0.507000 0.312000 0.374400
v 0.507000 0.312000 0.380250
v -0.507000 -0.374400 -0.312000
v 0.507000 -0.380250 -0.312000
v 0.507000 -0.374400 0.312000
v 0.507000 0.380250 0.312000
v 0.569400 0.312000 0.312000
vt 0.000078 0.615367
vt 0.999922 0.000079
vt 0.999922 0.615367
vt 0.400000 0.983333
vt 0.625000 1.000000
vt 0.375000 1.000000
vt 0.400000 0.225000
vt 0.625000 0.250000
vt 0.375000 0.250000
vt 0.400000 0.266667
vt 0.600000 0.266667
vt 0.600000 0.483333
vt 0.375000 0.500000
vt 0.400000 0.483333
vt 0.141667 0.525000
vt 0.358333 0.525000
vt 0.641667 0.525000
vt 0.875000 0.500000
vt 0.858333 0.525000
vt 0.358333 0.725000
vt 0.125000 0.750000
vt 0.141667 0.725000
vt 0.858333 0.725000
vt 0.625000 0.750000
vt 0.641667 0.725000
vt 0.000100 0.999900
vt 0.999900 0.000100
vt 0.999900 0.999900
vt 0.999922 0.000079
vt 0.000078 0.615367
vt 0.000079 0.000078
vt 0.999922 0.615367
vt 0.000078 0.000078
vt 0.999922 0.000079
vt 0.999922 0.615367
vt 0.000078 0.000078
vt 0.999922 0.000079
vt 0.999900 0.000100
vt 0.000100 0.999900
vt 0.000100 0.000100
vt 0.000078 0.000078
vt 0.612486 0.012514
vt 0.400000 0.025000
vt 0.375000 0.000000
vt 0.600000 0.225000
vt 0.612486 0.512514
vt 0.400000 0.525000
vt 0.387514 0.737486
vt 0.600000 0.725000
vt 0.125000 0.500000
vt 0.875000 0.750000
vt 0.600000 0.983333
vt 0.000100 0.000100
vt 0.999921 0.615367
vt 0.000078 0.615367
vt 0.000078 0.615367
vt 0.999900 0.999900
vt 0.000026 0.933311
vt 0.066689 0.000026
vt 0.066689 0.999974
vt 0.000026 0.933311
vt 0.066689 0.000026
vt 0.066689 0.999974
vt 0.000032 0.899975
vt 0.100025 0.000032
vt 0.100025 0.999968
vt 0.000027 0.066688
vt 0.000027 0.066688
vt 0.000032 0.100025
vn 0.0058 -0.0094 -0.9999
vn 0.0726 0.0519 0.9960
vn -0.9923 0.0000 0.1240
vn 0.1149 -0.0093 -0.9933
vn -0.1149 0.0093 -0.9933
vn -0.0057 -0.9930 0.1184
vn 0.0057 0.9930 0.1184
vn 0.0057 -0.9930 -0.1184
vn -0.0057 0.9930 -0.1184
vn -0.9998 -0.0143 -0.0143
vn -0.0058 -0.0094 0.9999
vn -0.0058 -0.9999 0.0094
vn 0.0058 0.9999 0.0094
vn 0.9998 -0.0143 0.0143
vn -0.0058 0.0094 -0.9999
vn -0.9800 -0.0031 -0.1991
vn -0.9787 0.0092 0.2049
vn 0.9800 -0.0031 0.1991
vn 0.9800 0.0031 -0.1991
vn 0.1961 0.0000 -0.9806
vn 0.2813 0.0525 -0.9582
vn 0.0000 -0.9806 0.1961
vn 0.0450 0.8913 -0.4512
vn 0.0450 -0.8913 0.4512
vn -0.0450 0.8913 0.4512
vn -0.3031 0.0089 0.9529
vn -0.9999 0.0094 0.0094
vn 0.0058 0.0094 0.9999
vn 0.0058 -0.9999 -0.0094
vn -0.0058 0.9999 -0.0094
vn 0.9998 0.0143 -0.0143
vn 0.0450 -0.4513 0.8913
vn -0.0450 0.4513 0.8913
vn -0.9806 0.1961 0.0000
vn 0.9800 0.1991 -0.0031
vn 0.9800 -0.1991 0.0031
vn -0.0057 0.2015 -0.9795
vn 0.0050 0.5077 -0.8615
vn 0.2049 -0.9787 -0.0092
vn -0.3031 0.9529 0.0089
vn 0.3031 -0.9529 0.0089
vn 0.3031 0.9529 -0.0089
vn -0.9933 0.1149 0.0093
vn 0.0000 0.1240 -0.9923
vn 0.0302 -0.0942 -0.9951
vn 0.1240 -0.9923 0.0000
vn 0.0726 0.9960 0.0519
vn -0.0726 -0.9960 0.0519
vn -0.0726 0.9960 -0.0519
vn -0.0726 -0.0519 0.9960
vn 0.0057 0.1184 0.9930
vn -0.0057 -0.1184 0.9930
vn -0.9800 -0.1991 -0.0031
vn 0.3031 -0.0089 0.9529
usemtl Tex_face
s off
f 7/1/1 19/2/1 18/3/1
f 22/4/2 13/5/2 12/6/2
f 1/7/3 14/8/3 11/9/3
f 19/10/4 14/8/4 18/11/4
f 7/12/5 15/13/5 8/14/5
f 25/15/6 15/13/6 26/16/6
f 10/17/7 14/18/7 9/19/7
f 27/20/8 12/21/8 5/22/8
f 6/23/9 17/24/9 28/25/9
f 21/26/10 20/27/10 13/28/10
f 23/29/11 2/30/11 24/31/11
f 27/32/12 25/33/12 26/34/12
f 6/35/13 10/36/13 9/37/13
f 29/38/14 3/39/14 16/40/14
f 7/1/15 8/41/15 19/2/15
f 13/42/16 20/43/16 12/44/16
f 1/7/17 21/45/17 14/8/17
f 16/46/18 3/47/18 15/13/18
f 4/48/19 29/49/19 17/24/19
f 19/10/20 11/9/20 14/8/20
f 7/12/21 16/46/21 15/13/21
f 25/15/22 11/50/22 15/13/22
f 10/17/23 16/46/23 14/18/23
f 27/20/24 4/48/24 12/21/24
f 6/23/25 13/51/25 17/24/25
f 22/4/26 23/52/26 13/5/26
f 21/26/27 1/53/27 20/27/27
f 23/29/28 22/54/28 2/30/28
f 27/32/29 5/55/29 25/33/29
f 6/35/30 28/56/30 10/36/30
f 29/38/31 4/57/31 3/39/31
usemtl Tex_bord
f 2/58/32 12/59/32 4/60/32
f 23/61/33 17/62/33 13/63/33
f 20/43/34 11/9/34 12/44/34
f 3/47/35 4/48/35 15/13/35
f 29/49/36 16/46/36 17/24/36
f 8/14/37 11/9/37 19/10/37
f 18/11/38 16/46/38 7/12/38
f 5/22/39 11/50/39 25/15/39
f 9/19/40 13/51/40 6/23/40
f 26/16/41 4/48/41 27/20/41
f 28/25/42 16/46/42 10/17/42
f 20/43/43 1/7/43 11/9/43
f 8/14/44 15/13/44 11/9/44
f 18/11/45 14/8/45 16/46/45
f 5/22/46 12/21/46 11/50/46
f 9/19/47 14/18/47 13/51/47
f 26/16/48 15/13/48 4/48/48
f 28/25/49 17/24/49 16/46/49
f 24/64/50 4/65/50 17/66/50
f 2/58/51 22/67/51 12/59/51
f 23/61/52 24/68/52 17/62/52
f 13/42/53 14/8/53 21/45/53
f 24/64/54 2/69/54 4/65/54
