# Blender v2.82 (sub 7) OBJ File: 'tunnelMoinsSimple.blend'
# www.blender.org
mtllib tunnelMoinsSimple.mtl
o Cylinder_Cylinder.001
v 6.196894 1.418370 51.057297
v 6.196894 1.418366 -51.057297
v 5.504681 3.187044 51.057297
v 5.504681 3.187040 -51.057297
v 4.323353 4.672535 51.057297
v 4.323353 4.672532 -51.057297
v 2.757876 5.742852 51.057297
v 2.757876 5.742848 -51.057297
v 0.947350 6.302891 51.057297
v 0.947350 6.302887 -51.057297
v -0.947352 6.302891 51.057297
v -0.947352 6.302887 -51.057297
v -2.757879 5.742851 51.057297
v -2.757879 5.742847 -51.057297
v -4.323355 4.672534 51.057297
v -4.323355 4.672530 -51.057297
v -5.504681 3.187042 51.057297
v -5.504681 3.187039 -51.057297
v -6.196894 1.418370 51.057297
v -6.196894 1.418366 -51.057297
v 6.597197 1.509993 51.057297
v 6.597197 1.509989 -51.057297
v 5.860269 3.392918 51.057297
v 5.860269 3.392914 -51.057297
v 4.602630 4.974369 51.057297
v 4.602630 4.974365 -51.057297
v 2.936028 6.113825 51.057297
v 2.936028 6.113821 -51.057297
v 1.008546 6.710041 51.057297
v 1.008546 6.710037 -51.057297
v -1.008549 6.710041 51.057297
v -1.008549 6.710037 -51.057297
v -2.936030 6.113823 51.057297
v -2.936030 6.113820 -51.057297
v -4.602632 4.974367 51.057297
v -4.602632 4.974362 -51.057297
v -5.860269 3.392917 51.057297
v -5.860269 3.392913 -51.057297
v -6.597197 1.509992 51.057297
v -6.597197 1.509989 -51.057297
v 6.709904 0.001805 51.057297
v 6.709904 0.001800 -51.057297
v 6.302762 0.001696 51.057297
v 6.302762 0.001691 -51.057297
v -6.709904 0.001806 51.057297
v -6.709904 0.001801 -51.057297
v -6.302762 0.001697 51.057297
v -6.302762 0.001692 -51.057297
vt 0.749891 1.000000
vt 0.714286 0.500000
vt 0.749891 0.500000
vt 0.714286 1.000000
vt 0.666667 0.500000
vt 0.666667 1.000000
vt 0.619048 0.500000
vt 0.619048 1.000000
vt 0.571429 0.500000
vt 0.571429 1.000000
vt 0.523810 0.500000
vt 0.523810 1.000000
vt 0.476191 0.500000
vt 0.476191 1.000000
vt 0.428571 0.500000
vt 0.428571 1.000000
vt 0.380952 0.500000
vt 0.380952 1.000000
vt 0.333333 0.500000
vt 0.333333 1.000000
vt 0.285714 0.500000
vt 0.445234 0.137281
vt 0.903336 0.084743
vt 0.403336 0.084743
vt 0.973540 0.249940
vt 0.469785 0.199835
vt 0.473540 0.249940
vt 0.487980 0.249936
vt 0.969785 0.199835
vt 0.957846 0.130000
vt 0.945235 0.137281
vt 0.457846 0.130000
vt 0.483983 0.196595
vt 0.913241 0.074068
vt 0.413241 0.074068
vt 0.854132 0.033767
vt 0.847814 0.046888
vt 0.354132 0.033767
vt 0.785770 0.012681
vt 0.783600 0.027081
vt 0.283600 0.027081
vt 0.347814 0.046888
vt 0.714230 0.012681
vt 0.716400 0.027081
vt 0.216400 0.027081
vt 0.285770 0.012681
vt 0.652186 0.046888
vt 0.645868 0.033768
vt 0.152186 0.046888
vt 0.214230 0.012681
vt 0.586758 0.074068
vt 0.596664 0.084743
vt 0.086758 0.074068
vt 0.145868 0.033768
vt 0.542154 0.130000
vt 0.554766 0.137281
vt 0.096664 0.084743
vt 0.042154 0.130000
vt 0.516017 0.196595
vt 0.530215 0.199835
vt 0.030215 0.199835
vt 0.054766 0.137281
vt 0.512020 0.249936
vt 0.526460 0.249940
vt 0.026460 0.249940
vt 0.987980 0.249936
vt 0.983983 0.196595
vt 0.012020 0.249936
vt 0.016017 0.196595
vt 0.285714 1.000000
vt 0.250109 0.500000
vt 0.250109 1.000000
vn 0.9972 0.0745 -0.0000
vn 0.9312 0.3645 -0.0000
vn 0.7827 0.6224 -0.0000
vn 0.5644 0.8255 -0.0000
vn 0.2955 0.9553 -0.0000
vn -0.0000 1.0000 -0.0000
vn -0.2955 0.9553 -0.0000
vn -0.5644 0.8255 -0.0000
vn -0.7827 0.6224 -0.0000
vn -0.9312 0.3645 -0.0000
vn -0.7827 -0.6224 0.0000
vn -0.9972 -0.0745 0.0000
vn 0.0000 0.0000 -1.0000
vn -0.0000 0.0000 1.0000
vn -0.9312 -0.3645 0.0000
vn -0.5644 -0.8255 0.0000
vn -0.2955 -0.9553 0.0000
vn 0.0000 -1.0000 0.0000
vn 0.2955 -0.9553 0.0000
vn 0.5644 -0.8255 0.0000
vn 0.7827 -0.6224 0.0000
vn 0.9312 -0.3645 0.0000
vn -0.0003 -1.0000 0.0000
vn 0.0003 -1.0000 0.0000
vn 0.9972 -0.0745 0.0000
vn -0.9972 0.0745 -0.0000
usemtl Material.002
s off
f 42/1/1 21/2/1 41/3/1
f 22/4/2 23/5/2 21/2/2
f 24/6/3 25/7/3 23/5/3
f 26/8/4 27/9/4 25/7/4
f 28/10/5 29/11/5 27/9/5
f 30/12/6 31/13/6 29/11/6
f 32/14/7 33/15/7 31/13/7
f 34/16/8 35/17/8 33/15/8
f 36/18/9 37/19/9 35/17/9
f 38/20/10 39/21/10 37/19/10
f 4/22/11 5/23/11 6/24/11
f 43/25/12 2/26/12 44/27/12
f 2/26/13 42/28/13 44/27/13
f 1/29/14 23/30/14 3/31/14
f 2/26/13 24/32/13 22/33/13
f 3/31/14 25/34/14 5/23/14
f 4/22/13 26/35/13 24/32/13
f 5/23/14 27/36/14 7/37/14
f 6/24/13 28/38/13 26/35/13
f 7/37/14 29/39/14 9/40/14
f 10/41/13 28/38/13 8/42/13
f 9/40/14 31/43/14 11/44/14
f 12/45/13 30/46/13 10/41/13
f 13/47/14 31/43/14 33/48/14
f 14/49/13 32/50/13 12/45/13
f 13/47/14 35/51/14 15/52/14
f 14/49/13 36/53/13 34/54/13
f 15/52/14 37/55/14 17/56/14
f 16/57/13 38/58/13 36/53/13
f 17/56/14 39/59/14 19/60/14
f 20/61/13 38/58/13 18/62/13
f 19/60/14 45/63/14 47/64/14
f 2/26/15 3/31/15 4/22/15
f 5/23/16 8/42/16 6/24/16
f 9/40/17 8/42/17 7/37/17
f 11/44/18 10/41/18 9/40/18
f 13/47/19 12/45/19 11/44/19
f 15/52/20 14/49/20 13/47/20
f 17/56/21 16/57/21 15/52/21
f 19/60/22 18/62/22 17/56/22
f 45/63/23 48/65/23 47/64/23
f 1/29/14 41/66/14 21/67/14
f 41/3/24 44/27/24 42/1/24
f 47/64/25 20/61/25 19/60/25
f 20/61/13 46/68/13 40/69/13
f 40/70/26 45/71/26 39/21/26
f 42/1/1 22/4/1 21/2/1
f 22/4/2 24/6/2 23/5/2
f 24/6/3 26/8/3 25/7/3
f 26/8/4 28/10/4 27/9/4
f 28/10/5 30/12/5 29/11/5
f 30/12/6 32/14/6 31/13/6
f 32/14/7 34/16/7 33/15/7
f 34/16/8 36/18/8 35/17/8
f 36/18/9 38/20/9 37/19/9
f 38/20/10 40/70/10 39/21/10
f 4/22/11 3/31/11 5/23/11
f 43/25/12 1/29/12 2/26/12
f 2/26/13 22/33/13 42/28/13
f 1/29/14 21/67/14 23/30/14
f 2/26/13 4/22/13 24/32/13
f 3/31/14 23/30/14 25/34/14
f 4/22/13 6/24/13 26/35/13
f 5/23/14 25/34/14 27/36/14
f 6/24/13 8/42/13 28/38/13
f 7/37/14 27/36/14 29/39/14
f 10/41/13 30/46/13 28/38/13
f 9/40/14 29/39/14 31/43/14
f 12/45/13 32/50/13 30/46/13
f 13/47/14 11/44/14 31/43/14
f 14/49/13 34/54/13 32/50/13
f 13/47/14 33/48/14 35/51/14
f 14/49/13 16/57/13 36/53/13
f 15/52/14 35/51/14 37/55/14
f 16/57/13 18/62/13 38/58/13
f 17/56/14 37/55/14 39/59/14
f 20/61/13 40/69/13 38/58/13
f 19/60/14 39/59/14 45/63/14
f 2/26/15 1/29/15 3/31/15
f 5/23/16 7/37/16 8/42/16
f 9/40/17 10/41/17 8/42/17
f 11/44/18 12/45/18 10/41/18
f 13/47/19 14/49/19 12/45/19
f 15/52/20 16/57/20 14/49/20
f 17/56/21 18/62/21 16/57/21
f 19/60/22 20/61/22 18/62/22
f 45/63/23 46/72/23 48/65/23
f 1/29/14 43/25/14 41/66/14
f 41/3/24 43/25/24 44/27/24
f 47/64/25 48/65/25 20/61/25
f 20/61/13 48/65/13 46/68/13
f 40/70/26 46/72/26 45/71/26
